<svg class="nc-icon glyph" xmlns="http://www.w3.org/2000/svg" xmlns:xlink="http://www.w3.org/1999/xlink" x="0px" y="0px" width="16px" height="16px" viewBox="0 0 16 16"><g> <path fill="#0f0f0f" d="M8,14c4.7,0,7.7-5.3,7.9-5.5c0.2-0.3,0.2-0.7,0-1C15.7,7.3,12.7,2,8,2C3.2,2,0.3,7.3,0.1,7.5 C0,7.8,0,8.2,0.1,8.5C0.3,8.7,3.3,14,8,14z M8,4c2.8,0,5,2.8,5.8,4c-0.8,1.2-3,4-5.8,4c-2.8,0-5-2.8-5.8-4C3,6.8,5.1,4,8,4z"></path> <circle data-color="color-2" fill="#0f0f0f" cx="8" cy="8" r="2"></circle> </g></svg>
