<svg class="nc-icon glyph" xmlns="http://www.w3.org/2000/svg" xmlns:xlink="http://www.w3.org/1999/xlink" x="0px" y="0px" width="16px" height="16px" viewBox="0 0 16 16"><g><path data-color="color-2" fill="#0f0f0f" d="M2,16c-0.2,0-0.5-0.1-0.7-0.2c-0.4-0.4-0.5-1-0.1-1.4L6.7,8L1.2,1.7c-0.4-0.4-0.3-1,0.1-1.4 c0.4-0.4,1-0.3,1.4,0.1l6,7c0.3,0.4,0.3,0.9,0,1.3l-6,7C2.6,15.9,2.3,16,2,16z"></path> <path fill="#0f0f0f" d="M8,16c-0.2,0-0.5-0.1-0.7-0.2c-0.4-0.4-0.5-1-0.1-1.4L12.7,8L7.2,1.7c-0.4-0.4-0.3-1,0.1-1.4 c0.4-0.4,1.1-0.3,1.4,0.1l6,7c0.3,0.4,0.3,0.9,0,1.3l-6,7C8.6,15.9,8.3,16,8,16z"></path></g></svg>
