<svg class="nc-icon glyph" xmlns="http://www.w3.org/2000/svg" xmlns:xlink="http://www.w3.org/1999/xlink" x="0px" y="0px" width="16px" height="16px" viewBox="0 0 16 16"><g><path data-color="color-2" fill="#0f0f0f" d="M14,16c-0.3,0-0.6-0.1-0.8-0.3l-6-7c-0.3-0.4-0.3-0.9,0-1.3l6-7c0.4-0.4,1-0.5,1.4-0.1 c0.4,0.4,0.5,1,0.1,1.4L9.3,8l5.4,6.3c0.4,0.4,0.3,1-0.1,1.4C14.5,15.9,14.2,16,14,16z"></path> <path fill="#0f0f0f" d="M8,16c-0.3,0-0.6-0.1-0.8-0.3l-6-7c-0.3-0.4-0.3-0.9,0-1.3l6-7c0.4-0.4,1-0.5,1.4-0.1c0.4,0.4,0.5,1,0.1,1.4 L3.3,8l5.4,6.3c0.4,0.4,0.3,1-0.1,1.4C8.5,15.9,8.2,16,8,16z"></path></g></svg>
