<svg class="nc-icon glyph" xmlns="http://www.w3.org/2000/svg" xmlns:xlink="http://www.w3.org/1999/xlink" x="0px" y="0px" width="16px" height="16px" viewBox="0 0 16 16"><g><path fill="#0f0f0f" d="M15,0H5C4.7,0,4.5,0.1,4.3,0.3l-4,4C0.1,4.5,0,4.7,0,5v10c0,0.6,0.4,1,1,1h10c0.3,0,0.5-0.1,0.7-0.3l4-4 c0.2-0.2,0.3-0.4,0.3-0.7V1C16,0.4,15.6,0,15,0z M5.4,2h7.2l-2,2H3.4L5.4,2z M2,6h8v8H2V6z M12,12.6V5.4l2-2v7.2L12,12.6z"></path> <circle data-color="color-2" fill="#0f0f0f" cx="4" cy="8" r="1"></circle> <circle data-color="color-2" fill="#0f0f0f" cx="8" cy="8" r="1"></circle> <circle data-color="color-2" fill="#0f0f0f" cx="4" cy="12" r="1"></circle> <circle data-color="color-2" fill="#0f0f0f" cx="8" cy="12" r="1"></circle></g></svg>
